<svg xmlns:svg="http://www.w3.org/2000/svg" xmlns="http://www.w3.org/2000/svg" viewBox="0 0 80.103029 18.863003">
  <g transform="translate(-74.250067,-52.687007)">
    <g aria-label="JUNIOR" style="font-style:normal;font-weight:normal;font-size:10.58333302px;line-height:1.25;font-family:sans-serif;letter-spacing:0px;word-spacing:0px;fill:none;fill-opacity:1;stroke:url(#meshgradient7456);stroke-width:0.265;stroke-miterlimit:4;stroke-dasharray:none;stroke-opacity:1" id="text3739">
      <path d="m 84.028834,53.469941 q -0.132292,2.083594 -0.363802,7.474479 -0.15434,4.53099 -0.06615,7.992622 -2.414323,1.830035 -5.335764,1.830035 -1.5875,0 -3.40651,-0.363802 -0.0441,-0.451997 -0.198438,-1.598525 -0.09922,-0.617361 -0.275607,-1.697743 0.341753,0.15434 1.74184,0.474045 0.738628,0.121268 1.378038,0.02205 -0.01102,-1.102431 -0.341753,-6.658681 -0.209462,-3.086805 -0.738629,-7.474479 z" style="font-style: normal; font-variant: normal; font-weight: bold; font-stretch: normal; font-size: 22.5778px; font-family: &quot;Showcard Gothic&quot;; fill: none; stroke: rgb(0, 0, 0); stroke-width: 0.265px; stroke-linecap: round; stroke-linejoin: bevel; stroke-miterlimit: 4; paint-order: stroke; stroke-opacity: 1;" id="path7442" class="DAjGDPZT_0"></path>
      <path d="m 99.881785,53.469941 -0.253559,7.132726 q -0.110243,3.053733 -0.110243,9.238368 -2.822222,1.014236 -5.754687,1.014236 -3.615972,0 -5.501129,-1.444184 -1.598524,-1.223698 -2.259982,-3.81441 -0.385851,-1.488281 -0.727604,-5.446007 -0.33073,-3.660069 -0.4079,-6.680729 h 7.110677 q -0.05512,1.455208 -0.132291,4.740452 -0.03307,1.830034 0.02205,5.192447 0.01103,2.557639 0.440973,3.450608 0.451996,0.94809 1.807986,0.94809 0.38585,0 0.859895,-0.220486 0,-2.271007 -0.132291,-7.22092 -0.110243,-2.480469 -0.4079,-6.890191 z" style="font-style: normal; font-variant: normal; font-weight: bold; font-stretch: normal; font-size: 22.5778px; font-family: &quot;Showcard Gothic&quot;; fill: none; stroke: rgb(0, 0, 0); stroke-width: 0.265px; stroke-linecap: round; stroke-linejoin: bevel; stroke-miterlimit: 4; paint-order: stroke; stroke-opacity: 1;" id="path7444" class="DAjGDPZT_1"></path>
      <path d="m 114.33465,53.469941 q -0.15434,2.22691 -0.42995,7.772136 -0.16536,4.078993 -0.27561,9.381684 -1.44418,-1.135504 -4.39869,-3.384462 -1.27882,-0.892969 -3.81441,-2.678906 l -0.11025,5.842882 h -3.54982 q -0.0882,-2.237935 -0.4079,-8.444619 -0.27561,-5.027083 -0.56224,-8.488715 h 5.5342 l 4.10104,3.880556 q 0,-1.333941 -0.0441,-2.094618 -0.0331,-0.672483 -0.13229,-1.785938 z" style="font-style: normal; font-variant: normal; font-weight: bold; font-stretch: normal; font-size: 22.5778px; font-family: &quot;Showcard Gothic&quot;; fill: none; stroke: rgb(0, 0, 0); stroke-width: 0.265px; stroke-linecap: round; stroke-linejoin: bevel; stroke-miterlimit: 4; paint-order: stroke; stroke-opacity: 1;" id="path7446" class="DAjGDPZT_2"></path>
      <path d="m 122.90054,53.469941 -0.42995,9.006858 q -0.12127,2.910416 -0.28663,7.926476 h -6.18464 l -0.74965,-16.933334 z" style="font-style: normal; font-variant: normal; font-weight: bold; font-stretch: normal; font-size: 22.5778px; font-family: &quot;Showcard Gothic&quot;; fill: none; stroke: rgb(0, 0, 0); stroke-width: 0.265px; stroke-linecap: round; stroke-linejoin: bevel; stroke-miterlimit: 4; paint-order: stroke; stroke-opacity: 1;" id="path7448" class="DAjGDPZT_3"></path>
      <path d="m 138.58812,61.572806 q 0,3.89158 -2.00642,6.58151 -2.10564,2.811198 -5.39089,2.811198 -3.38446,0 -5.47908,-2.833246 -1.97335,-2.667882 -1.97335,-6.559462 0,-4.156163 2.14974,-6.526389 2.02847,-2.22691 5.30269,-2.22691 3.2191,0 5.24757,2.237934 2.14974,2.38125 2.14974,6.515365 z m -5.30269,1.940278 q 0,-3.064757 -2.07257,-3.064757 -2.01745,0 -2.01745,3.086805 0,1.234722 0.52917,2.30408 0.59531,1.201649 1.46623,1.201649 0.84887,0 1.49931,-1.223698 0.59531,-1.113454 0.59531,-2.304079 z" style="font-style: normal; font-variant: normal; font-weight: bold; font-stretch: normal; font-size: 22.5778px; font-family: &quot;Showcard Gothic&quot;; fill: none; stroke: rgb(0, 0, 0); stroke-width: 0.265px; stroke-linecap: round; stroke-linejoin: bevel; stroke-miterlimit: 4; paint-order: stroke; stroke-opacity: 1;" id="path7450" class="DAjGDPZT_4"></path>
      <path d="m 154.22059,59.808917 q 0,2.028472 -1.1355,3.593923 -1.00321,1.367014 -2.51354,1.962327 0.3197,0.496094 1.57647,2.083594 0.62839,0.727604 1.91823,1.918229 -0.51814,0.187413 -2.28203,0.94809 -1.23472,0.56224 -2.32613,1.102431 -0.3197,-0.396875 -1.42213,-2.050521 -0.50712,-0.837847 -1.48829,-2.822222 h -0.022 l -0.11025,3.858507 h -6.20668 q -0.12127,-2.403299 -0.34176,-7.926476 -0.0992,-3.25217 -0.45199,-9.006858 3.03168,-0.319705 5.5342,-0.319705 9.27144,0 9.27144,6.658681 z m -5.00503,2.38125 q 0,-1.047309 -0.88195,-1.499306 -0.65043,-0.330729 -1.6316,-0.286632 l -0.0661,3.770313 q 0.91502,0 1.6316,-0.407899 0.94809,-0.529167 0.94809,-1.576476 z" style="font-style: normal; font-variant: normal; font-weight: bold; font-stretch: normal; font-size: 22.5778px; font-family: &quot;Showcard Gothic&quot;; fill: none; stroke: rgb(0, 0, 0); stroke-width: 0.265px; stroke-linecap: round; stroke-linejoin: bevel; stroke-miterlimit: 4; paint-order: stroke; stroke-opacity: 1;" id="path7452" class="DAjGDPZT_5"></path>
    </g>
    <path style="fill: none; stroke-width: 0.265px; stroke-linecap: round; stroke-linejoin: bevel; stroke-miterlimit: 4; paint-order: stroke;" d="M 64.444939,48.480652 H 155.34821 V 77.39583 H 64.444939 Z" id="rect6031" class="DAjGDPZT_6"></path>
  </g>
<style>
.DAjGDPZT_0{stroke-dasharray:53 55;stroke-dashoffset:54;animation:DAjGDPZT_draw_0 8500ms ease-in-out 0ms infinite,DAjGDPZT_fade 8500ms linear 0ms infinite;}
.DAjGDPZT_1{stroke-dasharray:88 90;stroke-dashoffset:89;animation:DAjGDPZT_draw_1 8500ms ease-in-out 0ms infinite,DAjGDPZT_fade 8500ms linear 0ms infinite;}
.DAjGDPZT_2{stroke-dasharray:73 75;stroke-dashoffset:74;animation:DAjGDPZT_draw_2 8500ms ease-in-out 0ms infinite,DAjGDPZT_fade 8500ms linear 0ms infinite;}
.DAjGDPZT_3{stroke-dasharray:48 50;stroke-dashoffset:49;animation:DAjGDPZT_draw_3 8500ms ease-in-out 0ms infinite,DAjGDPZT_fade 8500ms linear 0ms infinite;}
.DAjGDPZT_4{stroke-dasharray:70 72;stroke-dashoffset:71;animation:DAjGDPZT_draw_4 8500ms ease-in-out 0ms infinite,DAjGDPZT_fade 8500ms linear 0ms infinite;}
.DAjGDPZT_5{stroke-dasharray:80 82;stroke-dashoffset:81;animation:DAjGDPZT_draw_5 8500ms ease-in-out 0ms infinite,DAjGDPZT_fade 8500ms linear 0ms infinite;}
.DAjGDPZT_6{stroke-dasharray:240 242;stroke-dashoffset:241;animation:DAjGDPZT_draw_6 8500ms ease-in-out 0ms infinite,DAjGDPZT_fade 8500ms linear 0ms infinite;}

@keyframes DAjGDPZT_draw{100%{stroke-dashoffset:0;}}
@keyframes DAjGDPZT_fade{0%{stroke-opacity:1;}95.29411764705883%{stroke-opacity:1;}100%{stroke-opacity:0;}}
@keyframes DAjGDPZT_draw_0{1.1764705882352942%{stroke-dashoffset: 54}60%{ stroke-dashoffset: 0;}100%{ stroke-dashoffset: 0;}}
@keyframes DAjGDPZT_draw_1{1.1764705882352942%{stroke-dashoffset: 89}60%{ stroke-dashoffset: 0;}100%{ stroke-dashoffset: 0;}}
@keyframes DAjGDPZT_draw_2{1.1764705882352942%{stroke-dashoffset: 74}60%{ stroke-dashoffset: 0;}100%{ stroke-dashoffset: 0;}}
@keyframes DAjGDPZT_draw_3{1.1764705882352942%{stroke-dashoffset: 49}60%{ stroke-dashoffset: 0;}100%{ stroke-dashoffset: 0;}}
@keyframes DAjGDPZT_draw_4{1.1764705882352942%{stroke-dashoffset: 71}60%{ stroke-dashoffset: 0;}100%{ stroke-dashoffset: 0;}}
@keyframes DAjGDPZT_draw_5{1.1764705882352942%{stroke-dashoffset: 81}60%{ stroke-dashoffset: 0;}100%{ stroke-dashoffset: 0;}}
@keyframes DAjGDPZT_draw_6{1.1764705882352942%{stroke-dashoffset: 241}60%{ stroke-dashoffset: 0;}100%{ stroke-dashoffset: 0;}}
</style></svg>
